<?xml version="1.0" encoding="utf-8"?>
<!-- Generator: Adobe Illustrator 21.0.0, SVG Export Plug-In . SVG Version: 6.00 Build 0)  -->
<svg version="1.1" id="圖層_1" xmlns="http://www.w3.org/2000/svg" xmlns:xlink="http://www.w3.org/1999/xlink" x="0px" y="0px"
	 viewBox="0 0 418 418" style="enable-background:new 0 0 418 418;" xml:space="preserve">
<style type="text/css">
	.st0{fill:#FFFFFF;}
</style>
<path class="st0" d="M209,0C93.8,0,0,93.8,0,209s93.8,209,209,209s209-93.8,209-209S324.2,0,209,0z M300.4,226.4h-74v74
	c0,9.6-7.8,17.4-17.4,17.4s-17.4-7.8-17.4-17.4v-74h-74c-9.6,0-17.4-7.8-17.4-17.4s7.8-17.4,17.4-17.4h74v-74
	c0-9.6,7.8-17.4,17.4-17.4s17.4,7.8,17.4,17.4v74h74c9.6,0,17.4,7.8,17.4,17.4S310.1,226.4,300.4,226.4z"/>
</svg>
